<?xml version="1.0" encoding="UTF-8"?>
<svg xmlns="http://www.w3.org/2000/svg" version="1.1" viewBox="0 0 159.73 67">
  <!-- Generator: Adobe Illustrator 30.0.0, SVG Export Plug-In . SVG Version: 2.1.1 Build 123)  -->
  <defs>
    <style>
      .st0, .st1, .st2 {
        fill: #fac4bc;
      }

      .st0, .st3 {
        font-family: Aquavit-Medium, Aquavit;
        font-size: 23.57px;
        font-weight: 500;
      }

      .st0, .st3, .st4, .st5, .st6 {
        isolation: isolate;
      }

      .st7 {
        fill: #f9ceb8;
        stroke: #e7ad95;
      }

      .st7, .st1, .st3, .st8, .st9, .st10, .st11, .st12, .st13, .st14, .st2, .st15, .st16, .st17, .st6, .st18 {
        stroke-miterlimit: 10;
      }

      .st7, .st8, .st9, .st11, .st12, .st13, .st14, .st2, .st15, .st16 {
        stroke-width: .1px;
      }

      .st1, .st3 {
        stroke-width: .2px;
      }

      .st1, .st3, .st9, .st2 {
        stroke: #ed998f;
      }

      .st3, .st9, .st10, .st11, .st15, .st17, .st18 {
        fill: none;
      }

      .st8 {
        fill: #a07d69;
        stroke: #7a5540;
      }

      .st10 {
        stroke: #e29b49;
      }

      .st11 {
        stroke-linecap: round;
      }

      .st11, .st16 {
        stroke: #867b42;
      }

      .st19 {
        fill: #f9f6f4;
      }

      .st12 {
        stroke: #cc8940;
      }

      .st12, .st20 {
        fill: #e29b49;
      }

      .st13 {
        fill: #fff3e5;
      }

      .st13, .st15 {
        stroke: #cb8a6a;
      }

      .st14 {
        fill: #c19d72;
        stroke: #a07c55;
      }

      .st5 {
        fill: #fbefe1;
        opacity: .6;
      }

      .st16 {
        fill: #bcaf7a;
      }

      .st17 {
        stroke: #ddd0c5;
      }

      .st6 {
        fill: #ccc1b8;
        mix-blend-mode: darken;
        opacity: .7;
        stroke: #ccc1b8;
      }

      .st18 {
        stroke: #9c935b;
      }

      .st21 {
        display: none;
      }
    </style>
  </defs>
  <g class="st4">
    <g id="Layer_1">
      <g id="Layer_11" data-name="Layer_1" class="st21">
        <g>
          <path d="M16.44,4.17v35.28h14.1v9.96H4.68V4.17h11.76Z"/>
          <path d="M34.38,33.75c0-2.28.46-4.41,1.38-6.39.92-1.98,2.2-3.7,3.84-5.16s3.59-2.61,5.85-3.45,4.73-1.26,7.41-1.26,5.09.41,7.35,1.23,4.22,1.96,5.88,3.42c1.66,1.46,2.95,3.2,3.87,5.22.92,2.02,1.38,4.25,1.38,6.69s-.47,4.67-1.41,6.69c-.94,2.02-2.23,3.76-3.87,5.22-1.64,1.46-3.61,2.59-5.91,3.39s-4.79,1.2-7.47,1.2-5.08-.4-7.32-1.2-4.17-1.94-5.79-3.42-2.89-3.25-3.81-5.31c-.92-2.06-1.38-4.35-1.38-6.87h0ZM45.84,33.87c0,1.04.19,1.99.57,2.85.38.86.88,1.61,1.5,2.25s1.36,1.14,2.22,1.5,1.77.54,2.73.54,1.87-.18,2.73-.54,1.6-.86,2.22-1.5c.62-.64,1.12-1.39,1.5-2.25s.57-1.79.57-2.79-.19-1.87-.57-2.73-.88-1.61-1.5-2.25-1.36-1.14-2.22-1.5-1.77-.54-2.73-.54-1.87.18-2.73.54-1.6.86-2.22,1.5c-.62.64-1.12,1.38-1.5,2.22-.38.84-.57,1.74-.57,2.7Z"/>
          <path d="M112.02,18.63v28.68c0,1.72-.1,3.26-.3,4.62-.2,1.36-.48,2.56-.84,3.6-.48,1.32-1.23,2.55-2.25,3.69s-2.25,2.13-3.69,2.97-3.07,1.5-4.89,1.98-3.79.72-5.91.72c-2.4,0-4.6-.3-6.6-.9s-3.75-1.43-5.25-2.49-2.73-2.3-3.69-3.72c-.96-1.42-1.6-2.97-1.92-4.65h12.24c.76,2.04,2.48,3.06,5.16,3.06,2.28,0,4.03-.64,5.25-1.92s1.83-3.06,1.83-5.34v-2.94c-.8.76-1.57,1.39-2.31,1.89s-1.49.91-2.25,1.23-1.56.55-2.4.69c-.84.14-1.76.21-2.76.21-2.2,0-4.22-.38-6.06-1.14s-3.43-1.82-4.77-3.18-2.38-2.99-3.12-4.89c-.74-1.9-1.11-4.01-1.11-6.33s.4-4.55,1.2-6.57c.8-2.02,1.89-3.78,3.27-5.28s3.02-2.68,4.92-3.54c1.9-.86,3.97-1.29,6.21-1.29,3.64,0,6.7,1.36,9.18,4.08v-3.24s10.86,0,10.86,0ZM87.66,33.87c0,1,.18,1.93.54,2.79s.85,1.61,1.47,2.25,1.36,1.14,2.22,1.5,1.79.54,2.79.54,1.87-.18,2.73-.54,1.6-.86,2.22-1.5,1.12-1.39,1.5-2.25.57-1.77.57-2.73-.19-1.92-.57-2.76c-.38-.84-.89-1.58-1.53-2.22s-1.39-1.14-2.25-1.5-1.75-.54-2.67-.54-1.86.19-2.7.57-1.58.88-2.22,1.5-1.15,1.35-1.53,2.19c-.38.84-.57,1.74-.57,2.7h0Z"/>
          <path d="M118.2,33.75c0-2.28.46-4.41,1.38-6.39s2.2-3.7,3.84-5.16,3.59-2.61,5.85-3.45c2.26-.84,4.73-1.26,7.41-1.26s5.09.41,7.35,1.23c2.26.82,4.22,1.96,5.88,3.42s2.95,3.2,3.87,5.22c.92,2.02,1.38,4.25,1.38,6.69s-.47,4.67-1.41,6.69c-.94,2.02-2.23,3.76-3.87,5.22-1.64,1.46-3.61,2.59-5.91,3.39s-4.79,1.2-7.47,1.2-5.08-.4-7.32-1.2c-2.24-.8-4.17-1.94-5.79-3.42s-2.89-3.25-3.81-5.31-1.38-4.35-1.38-6.87ZM129.66,33.87c0,1.04.19,1.99.57,2.85.38.86.88,1.61,1.5,2.25s1.36,1.14,2.22,1.5,1.77.54,2.73.54,1.87-.18,2.73-.54,1.6-.86,2.22-1.5,1.12-1.39,1.5-2.25.57-1.79.57-2.79-.19-1.87-.57-2.73-.88-1.61-1.5-2.25-1.36-1.14-2.22-1.5-1.77-.54-2.73-.54-1.87.18-2.73.54-1.6.86-2.22,1.5-1.12,1.38-1.5,2.22c-.38.84-.57,1.74-.57,2.7Z"/>
        </g>
      </g>
      <rect class="st19" y=".27" width="159.73" height="67"/>
      <g>
        <g>
          <path class="st17" d="M63.93,35.45"/>
          <path class="st13" d="M63.9,35.45s-2.39-3-5.13-3.3c-.34-.04-.66.17-.77.5-.23.71-.31,2.23,1.2,4.97.15.28.33.54.53.79.6.73,1.97,2.34,2.43,2.41,0,0-1.08,1.77-.99,3.37,0,0,.22,1.38-4.41,1.73,0,0-6.66.74-7.95,9.16,0,0-1.9-.26-2.07,1.21,0,0-.35,3.58,4.37,3.93,0,0,1.35,1.39,2.56,1.54,0,0,3.88.33,5.18.49.35.04.7.02,1.04-.07.63-.18,1.44-.55,1.05-1.24,0,0,.41-.1-1.04-1.21,0,0,2.24-.7,2.1-1.01,0,0,1.72,3.04,3.02,3.38,0,0,2.37.12,2.24-.8,0,0,1.37-.19,1.33-1.11,0,0-.19-.75-.89-1.69,0,0-.22-2.22-.02-2.51,0,0,2.75-2.78,2.27-5.41,0,0-.02-1.72-.24-2.66,0,0,1.62-.27,2.66-2,0,0,.46-1.16-.05-1.98,0,0-.96-3.36-2.54-4.35,0,0-1.26-.77-1.83-.92,0,0,.51-3.82-1.06-5.89,0,0-1.04-2-2.24-1.64,0,0-.94-.01-.74,4.33h0Z"/>
          <path class="st15" d="M51.11,60.21s-2.34-3.3-2.29-5.14"/>
          <path class="st15" d="M54.89,60.45s3.74-1.52,5.02-.73"/>
          <path class="st15" d="M58.99,60.89s.75.53.91,1.27"/>
          <path class="st15" d="M59.65,60.45s.98.48,1.15,1.29"/>
          <path class="st15" d="M58.35,59.52s3.58-3.58-.95-6.72"/>
          <path class="st15" d="M60.8,55.47s1.65,2.85,1.21,3.23"/>
          <path class="st15" d="M67.68,55.98s-1.44,1.04-1.77.88c0,0-.29,2.45.38,2.67,0,0,1.2,1.32.98,1.77"/>
          <path class="st15" d="M66.12,60.7s.94.48.95,1.04"/>
          <path class="st15" d="M65.61,61.09s.54.58.5.95"/>
          <path class="st15" d="M68.19,44.82s1.34,0,1.71.15"/>
          <path class="st15" d="M67.55,45.81s1.33-.62,2.35-.44"/>
          <path class="st15" d="M69.81,45.81s-1.27.89-1.61.89"/>
          <path class="st13" d="M69.71,47.91s-4,.82-5.67-1.17"/>
          <path class="st15" d="M63.93,35.45s1.38,2.7,1.3,3.2c0,0,1.74-.44,2.75,0"/>
          <path class="st7" d="M62.84,39.96c.24.13.52-.1.44-.37-.19-.6-.48-1.54-.6-2.19-.19-1.02-.66-1.98-1.38-2.73-.47-.49-1.06-.9-1.74-.97-.2-.02-.38.13-.39.33-.04.56.08,1.81,1.44,3.65,0,0,1.14,1.67,2.23,2.27Z"/>
          <path class="st18" d="M63.29,40"/>
          <path class="st7" d="M71.04,44.63c.18.05.53.1.87-.07.1-.05.23,0,.25.12.01.07.01.15-.01.22-.04.11-.08.23-.09.35-.03.32-.12.89-.31,1.27-.02.04-.07.02-.07-.02.04-.26.05-.45,0-.84,0-.07-.14-.36-.18-.43-.07-.15-.23-.39-.51-.45-.03,0-.05-.03-.05-.06h0c0-.06.05-.1.11-.08Z"/>
          <ellipse class="st8" cx="67.48" cy="43.16" rx=".73" ry=".77"/>
          <path class="st15" d="M70.4,46.89s.05.43.63.44"/>
          <path class="st6" d="M59.16,36.22"/>
        </g>
        <circle class="st5" cx="63.75" cy="57.22" r=".11"/>
      </g>
      <g>
        <g>
          <path class="st2" d="M26.55,37.49s1.17,5.29,4.68,5.27c0,0,1.83-.1.93-2.31,0,0,3.64,1.58,4.18-.65,0,0,2.24-1.39-1.14-3.79,0,0,3.4-1.29,2.09-4.62-.12-.31-.36-.56-.66-.69-.73-.34-2.25-.73-4.21.49,0,0,1.79-3.24-1.24-2.17-1.2.42-2.22,1.2-3,2.19-.64.82-1.31,1.87-1.33,2.68,0,0,.06,1.72.56,2.05,0,0,.22,1.15-.86,1.57h0Z"/>
          <path class="st2" d="M27.42,35.93s.55.1,1.19-.17c.53-.22,1.12-.72,1.51-1.73.88-2.25,2.31-2.85,2.31-2.85"/>
          <path class="st2" d="M32.17,40.45s-1.36-3.28-3.57-4.68"/>
          <path class="st9" d="M33.23,35.83s1.53-.17,1.96.15"/>
        </g>
        <path class="st1" d="M34.51,16.23s.23-.77-.21-1.86c0,0,.67-1.74,2.55-1.82,0,0,.79,2.24-.19,3.43,0,0-1.59-.08-2.15.25Z"/>
        <path class="st1" d="M40.36,13.37s-.45-5.36,5.06-5.68c0,0,2.02,0,.98,2.74,0,0,2.08,1.93-3.73,4.74l-2.31-1.8Z"/>
        <path class="st1" d="M42.09,18.96s2.55.09,3.57,2.12c.26.51.29,1.11.07,1.63-.26.61-.84,1.31-2.12,1.27-2.29-.06-2.47-.64-3.19-1.16,0,0,.82.04.46-1.12,0,0-1.27-1.2-.51-1.03s1.05-.41.7-.63c0,0-.89-.46-.08-.47,1-.01,1.12-.63,1.12-.63h-.01Z"/>
        <g>
          <ellipse class="st20" cx="31.32" cy="37.73" rx=".59" ry=".63" transform="translate(-4.05 3.76) rotate(-6.46)"/>
          <ellipse class="st20" cx="32.68" cy="36.37" rx=".36" ry=".6" transform="translate(-7.38 64.4) rotate(-83.04)"/>
          <ellipse class="st20" cx="31.16" cy="33.73" rx=".65" ry=".34" transform="translate(-13.3 22.25) rotate(-32.79)"/>
          <circle class="st20" cx="32.33" cy="34.93" r=".58"/>
          <ellipse class="st20" cx="30.43" cy="35.51" rx=".4" ry=".36" transform="translate(-3.8 3.65) rotate(-6.46)"/>
          <ellipse class="st20" cx="31.37" cy="34.96" rx=".17" ry=".22" transform="translate(-3.73 3.75) rotate(-6.46)"/>
          <ellipse class="st20" cx="31.43" cy="36.2" rx=".39" ry=".3" transform="translate(-3.87 3.77) rotate(-6.46)"/>
          <ellipse class="st20" cx="30.03" cy="36.44" rx=".42" ry=".58" transform="translate(-14.35 52.56) rotate(-70.46)"/>
        </g>
        <g>
          <path class="st14" d="M26.53,37.44h0c-1.98-1.87-5.65-.86-5.65-.86l-.12-1.08c5.22.09,6.07-1.67,6.07-1.67,0,0,.06,1.72.56,2.05,0,0,.22,1.15-.86,1.55h0Z"/>
          <g>
            <path class="st14" d="M6.98,54.98s-1.41,1.64-2.22,5.88c0,0-1.52,2.36-1.8-.67,0,0,4-15.72,5.84-17.88,0,0,12.66-18.74,17.78-20.11.42-.11.84-.26,1.23-.45,1.53-.76,4.9-2.48,5.6-3.37,0,0,.67-1.5.44-2.53s.49-2.58.89-2.29c0,0,.01,2.31.55,2.3,0,0,2.28-.06.17.67,0,0-.59.18-.96,1.43,0,0,3.42-1.88,4.58-4.48,0,0,1.38-4.46,1.65-2.83,0,0-1.1,3.01,1.04,2.29,0,0,.84.3-.15,1.03,0,0,.38.75,2.12.54,0,0-.37,1.17-3,.82,0,0-1.91.63-2.1.65s-4.54,3.51-4.54,3.51c0,0,7.04-.77,8.3-.58,0,0,.22.42-1.76.76,0,0,.6.47.55.76,0,0,.1.35-1.04.3,0,0,1.26,1.53.74,1.62,0,0-.26,1.15-1.76-.41s-1.2-1.6-1.2-1.6c0,0-4.09,0-5.49.72-.27.13-.56.26-.85.36-8.15,2.87-8.03,4.86-11.25,8.14-12.54,12.71-13.8,24.47-13.8,24.47"/>
            <path class="st16" d="M6.99,54.97s.49-.75,3.12-1.38c1.64-.39,3.3-.93,4.67-1.9.79-.56,1.58-1.2,1.74-1.57.28-.59,3.24-2.52,3.24-2.52.65-.74-2.75-.69-2.75-.69-6.44-.1-9.35,5.61-9.35,5.61-.31.94-1.15,1.65-1.15,1.65"/>
            <path class="st11" d="M8.09,53.28s4.51-4.48,9.66-5.36"/>
          </g>
        </g>
        <path class="st10" d="M30.58,36.63"/>
        <g>
          <g>
            <path class="st2" d="M7.68,16.15s-2.65-2.01,2.06-3.61c0,0,2.11-.46,3.81.38,0,0-2.31-5.28,1.21-7.22,0,0,1.25-.15,2.1,1.48,0,0,1.27-3.86,4.05.73,0,0,.74,2.08.8,2.88,0,0,3.33-4.28,6.62-2.35,0,0,1.6.49,1.12,1.98,0,0,3.42.68-.15,4.46,0,0-1.61,1.9-3.63,2.18,0,0,3.03.69,3.72,3.88,0,0,.86,2.85-1.36,3.07,0,0-.15,1.92-1.24,2.22,0,0-3.66,1.48-6.1-2.54,0,0-.5,3.23-2.53,3.99,0,0,.07.18.02.39,1.55-.28,3.41,2.88.7,5.67,0,0,4.77,1.83,1.71,4.75,0,0-.09,3.57-4.49,1.38,0,0-.09,5.27-3.4,3.68,0,0-3.24,2.69-3.58-4.3-1.92,2.37-7.23,2.17-5.17-1.71-.69.11-3.05-3.59,3.32-4.54,0,0-4.46-4.83.25-5.7,0,0,1.98-3.89,5.18,1.68,0,0,.98-1.34,1.25-1.3,0,0-4.19-1.19-.78-6.62-4.01,1.6-8.87-2.88-5.5-4.93v.02Z"/>
            <path class="st2" d="M13.98,27.69s1.92-2.07,4.19-.01"/>
            <path class="st9" d="M13.54,12.92s3.11,1.53,3.91,3.45"/>
            <path class="st9" d="M13.18,21.07s3.39-1.62,3.7-2.31"/>
            <path class="st9" d="M20.7,23.69s-1.12-3.66-.49-4.35"/>
            <path class="st9" d="M21.7,10.78s-1.6,2.68-1.11,3.54"/>
            <path class="st9" d="M12.72,28.99s-.72,2.24-.1,3.12"/>
            <path class="st9" d="M18.9,33.74s-2.5.77-3.29.66"/>
            <path class="st9" d="M16.11,39.88s-1.51-2.84-1.22-3.71"/>
            <path class="st9" d="M9.14,39.25s1.68-2.05,1.43-2.99"/>
            <path class="st9" d="M7.3,33.01s1.83.44,2.17,1.31"/>
          </g>
          <path class="st9" d="M25.85,17.07s-3.16-.15-4.05.15"/>
        </g>
        <path class="st12" d="M21.4,16.67c-.23.02-.41.17-.5.37l-.94-.15h0c-.01-.07-.03-.13-.07-.19l.97-1.01c.23.06.51-.08.68-.36.19-.32.16-.7-.09-.85s-.6-.01-.79.3c-.15.23-.16.51-.06.69l-.91.94c-.11-.1-.25-.17-.39-.2l-.08-1.39c.25-.08.41-.36.38-.68-.04-.36-.31-.61-.6-.58s-.49.35-.46.7c.03.25.17.46.36.54l.08,1.42s-.03,0-.06.01l-.87-1.31h0c.06-.11.09-.25.07-.38-.03-.34-.31-.58-.6-.55s-.5.34-.47.67.31.58.6.55c.06,0,.11-.02.17-.04l.8,1.21s-.03.02-.04.04l-1.23-.25s.02-.11.01-.17c-.03-.29-.34-.49-.68-.45s-.59.3-.56.59.34.49.68.45c.12-.01.25-.06.34-.12l1.24.25c-.06.12-.08.27-.06.41,0,.02,0,.06.01.08l-1.57.18c-.12-.08-.28-.12-.44-.11-.36.04-.61.37-.57.73s.37.61.73.58c.27-.03.48-.22.56-.46l1.36-.16-.17.84c-.28.07-.48.34-.45.63.03.31.32.55.64.5s.55-.32.5-.64c-.01-.13-.08-.25-.16-.34l.22-1.11c.07.01.13.02.21.01l.29.88c-.1.13-.16.31-.13.49.04.38.38.65.76.6s.65-.38.6-.76-.35-.61-.7-.6l-.28-.85s.08-.07.1-.11l1.21.19c.13.13.32.21.53.19.35-.04.6-.36.56-.7s-.36-.6-.7-.56h-.04ZM18.45,17.55h0Z"/>
        <path class="st12" d="M13.85,35.73c-.17-.09-.36-.09-.5-.01l-.55-.55h0s.03-.1.04-.15l1.11-.17c.12.15.38.2.61.11.28-.11.42-.37.34-.58-.09-.21-.39-.3-.67-.19-.2.08-.35.25-.36.41l-1.04.16c-.02-.11-.08-.22-.17-.31l.59-.91c.2.07.45-.03.57-.25.13-.25.08-.54-.12-.66s-.49-.02-.63.22c-.1.17-.1.37-.02.5l-.6.93-.04-.02.03-1.23h0c.09-.04.17-.11.22-.2.13-.22.07-.51-.15-.64s-.49-.03-.63.19-.07.51.15.64c.04.02.09.04.13.04l-.03,1.15h-.06l-.7-.75s.07-.06.09-.1c.11-.2,0-.47-.23-.61s-.54-.1-.65.1,0,.47.23.6c.09.06.19.08.28.08l.7.75c-.1.06-.18.13-.23.23,0,.02-.02.03-.03.06l-1.12-.64c-.04-.11-.12-.21-.25-.28-.26-.15-.58-.07-.72.18s-.04.56.21.7c.19.11.42.09.58-.02l.97.56-.5.45c-.21-.1-.47-.02-.59.18-.12.21-.04.49.19.63s.51.06.64-.16c.06-.09.07-.19.06-.29l.66-.59s.08.08.13.11l-.22.69c-.13.03-.25.12-.32.25-.15.26-.04.59.22.74s.6.07.75-.19.06-.56-.19-.72l.21-.66s.08,0,.12-.02l.72.7c.02.15.11.29.26.37.25.15.57.07.7-.17s.04-.55-.2-.69h0ZM11.5,34.88h0Z"/>
      </g>
      <g class="st4">
        <text class="st0" transform="translate(49.99 25.92)"><tspan x="0" y="0">HoneyBun </tspan></text>
        <text class="st3" transform="translate(49.99 25.92)"><tspan x="0" y="0">HoneyBun </tspan></text>
        <text class="st0" transform="translate(111.06 54.2)"><tspan x="0" y="0">Café</tspan></text>
        <text class="st3" transform="translate(111.06 54.2)"><tspan x="0" y="0">Café</tspan></text>
      </g>
      <g>
        <g>
          <path class="st17" d="M83.66,35.52"/>
          <path class="st13" d="M83.7,35.53c.2-4.34-.74-4.33-.74-4.33-1.21-.36-2.24,1.64-2.24,1.64-1.57,2.08-1.06,5.89-1.06,5.89-.58.15-1.83.92-1.83.92-1.57.99-2.54,4.35-2.54,4.35-.51.82-.05,1.98-.05,1.98,1.04,1.74,2.66,2,2.66,2-.22.94-.24,2.66-.24,2.66-.48,2.63,2.27,5.41,2.27,5.41.19.29-.02,2.51-.02,2.51-.7.94-.89,1.69-.89,1.69-.04.92,1.33,1.11,1.33,1.11-.12.91,2.24.8,2.24.8,1.3-.34,3.02-3.38,3.02-3.38-.14.31,2.1,1.01,2.1,1.01-1.45,1.11-1.04,1.21-1.04,1.21-.39.68.42,1.06,1.05,1.24.34.09.69.12,1.04.07,1.3-.16,5.18-.49,5.18-.49,1.21-.15,2.56-1.54,2.56-1.54,4.71-.35,4.37-3.93,4.37-3.93-.17-1.47-2.07-1.21-2.07-1.21-1.3-8.42-7.95-9.16-7.95-9.16-4.62-.35-4.41-1.73-4.41-1.73.08-1.6-.99-3.37-.99-3.37.46-.07,1.83-1.68,2.43-2.41.2-.25.38-.51.53-.79,1.51-2.74,1.43-4.26,1.2-4.97-.11-.33-.43-.54-.77-.5-2.74.3-5.13,3.3-5.13,3.3h0Z"/>
          <path class="st15" d="M98.77,55.13c.05,1.84-2.29,5.14-2.29,5.14"/>
          <path class="st15" d="M87.69,59.78c1.28-.8,5.02.73,5.02.73"/>
          <path class="st15" d="M87.69,62.22c.16-.74.91-1.27.91-1.27"/>
          <path class="st15" d="M86.8,61.8c.16-.81,1.15-1.29,1.15-1.29"/>
          <path class="st15" d="M90.2,52.86c-4.54,3.14-.95,6.72-.95,6.72"/>
          <path class="st15" d="M85.59,58.76c-.44-.38,1.21-3.23,1.21-3.23"/>
          <path class="st15" d="M80.33,61.35c-.21-.45.98-1.77.98-1.77.67-.22.38-2.67.38-2.67-.33.17-1.77-.88-1.77-.88"/>
          <path class="st15" d="M80.53,61.8c0-.55.95-1.04.95-1.04"/>
          <path class="st15" d="M81.48,62.1c-.04-.37.5-.95.5-.95"/>
          <path class="st15" d="M77.7,45.04c.36-.15,1.71-.15,1.71-.15"/>
          <path class="st15" d="M77.7,45.43c1.02-.19,2.35.44,2.35.44"/>
          <path class="st15" d="M79.4,46.75c-.34,0-1.61-.89-1.61-.89"/>
          <path class="st13" d="M83.56,46.8c-1.68,1.99-5.67,1.17-5.67,1.17"/>
          <path class="st15" d="M79.62,38.72c1.01-.45,2.75,0,2.75,0-.08-.5,1.3-3.2,1.3-3.2"/>
          <path class="st7" d="M86.98,37.75c1.36-1.84,1.48-3.09,1.44-3.65-.01-.2-.19-.35-.39-.33-.68.07-1.26.48-1.74.97-.72.75-1.19,1.71-1.38,2.73-.12.65-.41,1.59-.6,2.19-.08.26.2.5.44.37,1.08-.61,2.23-2.27,2.23-2.27Z"/>
          <path class="st18" d="M84.3,40.06"/>
          <path class="st7" d="M76.66,44.78h0s-.02.05-.05.06c-.28.07-.44.3-.51.45-.03.07-.17.35-.18.43-.05.38-.04.58,0,.84,0,.04-.05.06-.07.02-.18-.38-.27-.95-.31-1.27-.01-.12-.05-.24-.09-.35-.03-.07-.03-.15-.01-.22.02-.11.15-.17.25-.12.33.18.69.12.87.07.05-.01.11.02.11.08Z"/>
          <ellipse class="st8" cx="80.11" cy="43.22" rx=".73" ry=".77"/>
          <path class="st15" d="M76.56,47.39c.58,0,.63-.44.63-.44"/>
          <path class="st6" d="M88.43,36.28"/>
        </g>
        <circle class="st5" cx="83.85" cy="57.29" r=".11"/>
      </g>
      <g>
        <g>
          <path class="st2" d="M65.68,39.15s.01.04,0,.07c0,0,0,0,0,0,.29-.02.58.59.05,1.07,0,0,.87.41.25.91,0,0-.07.66-.86.19,0,0-.09.98-.69.64,0,0-.64.46-.61-.85-.39.42-1.38.3-.94-.39-.13.01-.52-.71.68-.8,0,0-.76-.96.12-1.06,0,0,.42-.7.94.39,0,0,.22-.23.26-.23"/>
          <path class="st2" d="M64.89,39.1s.4-.36.79.05"/>
          <path class="st9" d="M64.65,39.33s-.21.44-.11.61"/>
          <path class="st9" d="M65.73,40.3c.06-.06-.54-.13-.75.07"/>
          <path class="st9" d="M65.13,41.4c.25.04-.3-.89-.33-.67"/>
          <path class="st9" d="M63.83,41.19s.36-.35.31-.54"/>
          <path class="st9" d="M63.58,40s.59.14.69.4"/>
        </g>
        <path class="st12" d="M64.76,40.6s-.07-.02-.09,0l-.09-.11h0s0-.02.01-.03l.21-.02s.07.04.11.03c.05-.02.08-.06.07-.1-.01-.04-.07-.06-.12-.04-.04.01-.07.04-.07.07h-.2s-.01-.03-.03-.05l.12-.16s.08,0,.11-.04c.03-.04.02-.1-.01-.12s-.09-.01-.12.03c-.02.03-.02.07-.01.09l-.13.16s0,0,0,0l.02-.23h0s.03-.02.04-.04c.03-.04.02-.09-.02-.12s-.09-.01-.12.03-.02.09.02.12c0,0,.02,0,.02.01l-.02.21s0,0,0,0l-.12-.15s.01-.01.02-.02c.02-.03,0-.09-.04-.12s-.1-.03-.12,0,0,.09.04.12c.02.01.03.02.05.02l.12.15s-.04.02-.05.04c0,0,0,0,0,.01l-.2-.13s-.02-.04-.04-.06c-.05-.03-.11-.02-.14.02s-.02.1.03.14c.03.02.08.02.11,0l.17.12-.1.08s-.09-.01-.11.03c-.03.04-.01.09.03.12s.09.02.12-.02c.01-.02.02-.03.01-.05l.13-.1s.01.02.02.02l-.05.13s-.05.02-.06.04c-.03.05-.02.11.03.14s.11.02.14-.02.02-.1-.02-.14l.05-.12s.02,0,.02,0l.12.14s.02.06.04.07c.04.03.1.02.13-.02s.02-.1-.03-.13ZM64.34,40.41h0s0,0,0,0h0Z"/>
      </g>
      <g>
        <g>
          <path class="st2" d="M85.51,39.14s.01.04,0,.07c0,0,0,0,0,0,.29-.02.58.59.05,1.07,0,0,.87.41.25.91,0,0-.07.66-.86.19,0,0-.09.98-.69.64,0,0-.64.46-.61-.85-.39.42-1.38.3-.94-.39-.13.01-.52-.71.68-.8,0,0-.76-.96.12-1.06,0,0,.42-.7.94.39,0,0,.22-.23.26-.23"/>
          <path class="st2" d="M84.72,39.09s.4-.36.79.05"/>
          <path class="st9" d="M84.48,39.31s-.21.44-.11.61"/>
          <path class="st9" d="M85.57,40.28c.06-.06-.54-.13-.75.07"/>
          <path class="st9" d="M84.96,41.39c.25.04-.3-.89-.33-.67"/>
          <path class="st9" d="M83.67,41.18s.36-.35.31-.54"/>
          <path class="st9" d="M83.41,39.99s.59.14.69.4"/>
        </g>
        <path class="st12" d="M84.6,40.59s-.07-.02-.09,0l-.09-.11h0s0-.02.01-.03l.21-.02s.07.04.11.03c.05-.02.08-.06.07-.1-.01-.04-.07-.06-.12-.04-.04.01-.07.04-.07.07h-.2s-.01-.03-.03-.05l.12-.16s.08,0,.11-.04c.03-.04.02-.1-.01-.12s-.09-.01-.12.03c-.02.03-.02.07-.01.09l-.13.16s0,0,0,0l.02-.23h0s.03-.02.04-.04c.03-.04.02-.09-.02-.12s-.09-.01-.12.03-.02.09.02.12c0,0,.02,0,.02.01l-.02.21s0,0,0,0l-.12-.15s.01-.01.02-.02c.02-.03,0-.09-.04-.12s-.1-.03-.12,0,0,.09.04.12c.02.01.03.02.05.02l.12.15s-.04.02-.05.04c0,0,0,0,0,.01l-.2-.13s-.02-.04-.04-.06c-.05-.03-.11-.02-.14.02s-.02.1.03.14c.03.02.08.02.11,0l.17.12-.1.08s-.09-.01-.11.03c-.03.04-.01.09.03.12s.09.02.12-.02c.01-.02.02-.03.01-.05l.13-.1s.01.02.02.02l-.05.13s-.05.02-.06.04c-.03.05-.02.11.03.14s.11.02.14-.02.02-.1-.02-.14l.05-.12s.02,0,.02,0l.12.14s.02.06.04.07c.04.03.1.02.13-.02s.02-.1-.03-.13ZM84.17,40.39h0s0,0,0,0h0Z"/>
      </g>
    </g>
  </g>
</svg>